<mxfile host="app.diagrams.net" agent="Mozilla/5.0 (Macintosh; Intel Mac OS X 10_15_7) AppleWebKit/605.1.15 (KHTML, like Gecko) Version/18.3.1 Safari/605.1.15" version="26.2.2">
  <diagram name="第 1 页" id="6fgP133uSVu6FE4KQnnV">
    <mxGraphModel dx="1236" dy="771" grid="1" gridSize="10" guides="1" tooltips="1" connect="1" arrows="1" fold="1" page="1" pageScale="1" pageWidth="827" pageHeight="1169" math="0" shadow="0">
      <root>
        <mxCell id="0" />
        <mxCell id="1" parent="0" />
        <mxCell id="4HEI8u6SiJJmMDaHa_lF-4" style="edgeStyle=orthogonalEdgeStyle;rounded=0;orthogonalLoop=1;jettySize=auto;html=1;curved=1;sketch=1;curveFitting=1;jiggle=2;" edge="1" parent="1" source="4HEI8u6SiJJmMDaHa_lF-1" target="4HEI8u6SiJJmMDaHa_lF-2">
          <mxGeometry relative="1" as="geometry">
            <Array as="points">
              <mxPoint x="300" y="190" />
              <mxPoint x="300" y="190" />
            </Array>
          </mxGeometry>
        </mxCell>
        <mxCell id="4HEI8u6SiJJmMDaHa_lF-1" value="user" style="ellipse;whiteSpace=wrap;html=1;fontFamily=Comic Sans MS;fontSize=15;sketch=1;curveFitting=1;jiggle=2;fillColor=#fff2cc;strokeColor=#d6b656;" vertex="1" parent="1">
          <mxGeometry x="240" y="80" width="120" height="80" as="geometry" />
        </mxCell>
        <mxCell id="4HEI8u6SiJJmMDaHa_lF-7" style="edgeStyle=orthogonalEdgeStyle;rounded=0;orthogonalLoop=1;jettySize=auto;html=1;curved=1;sketch=1;curveFitting=1;jiggle=2;dashed=1;" edge="1" parent="1" source="4HEI8u6SiJJmMDaHa_lF-2" target="4HEI8u6SiJJmMDaHa_lF-5">
          <mxGeometry relative="1" as="geometry" />
        </mxCell>
        <mxCell id="4HEI8u6SiJJmMDaHa_lF-9" style="edgeStyle=orthogonalEdgeStyle;rounded=0;orthogonalLoop=1;jettySize=auto;html=1;dashed=1;sketch=1;curveFitting=1;jiggle=2;curved=1;" edge="1" parent="1" source="4HEI8u6SiJJmMDaHa_lF-2" target="4HEI8u6SiJJmMDaHa_lF-3">
          <mxGeometry relative="1" as="geometry" />
        </mxCell>
        <mxCell id="4HEI8u6SiJJmMDaHa_lF-16" value="continue" style="edgeLabel;html=1;align=center;verticalAlign=middle;resizable=0;points=[];fontFamily=Comic Sans MS;fontSize=15;" vertex="1" connectable="0" parent="4HEI8u6SiJJmMDaHa_lF-9">
          <mxGeometry x="0.1259" y="-20" relative="1" as="geometry">
            <mxPoint as="offset" />
          </mxGeometry>
        </mxCell>
        <mxCell id="4HEI8u6SiJJmMDaHa_lF-22" style="edgeStyle=orthogonalEdgeStyle;rounded=0;orthogonalLoop=1;jettySize=auto;html=1;exitX=1;exitY=0.25;exitDx=0;exitDy=0;entryX=1;entryY=0.5;entryDx=0;entryDy=0;sketch=1;curveFitting=1;jiggle=2;curved=1;dashed=1;" edge="1" parent="1" source="4HEI8u6SiJJmMDaHa_lF-2" target="4HEI8u6SiJJmMDaHa_lF-1">
          <mxGeometry relative="1" as="geometry" />
        </mxCell>
        <mxCell id="4HEI8u6SiJJmMDaHa_lF-2" value="Researcher" style="rounded=1;whiteSpace=wrap;html=1;fontFamily=Comic Sans MS;fontSize=15;sketch=1;curveFitting=1;jiggle=2;fillColor=#dae8fc;strokeColor=#6c8ebf;" vertex="1" parent="1">
          <mxGeometry x="240" y="230" width="120" height="60" as="geometry" />
        </mxCell>
        <mxCell id="4HEI8u6SiJJmMDaHa_lF-10" style="edgeStyle=orthogonalEdgeStyle;rounded=0;orthogonalLoop=1;jettySize=auto;html=1;exitX=0.25;exitY=0;exitDx=0;exitDy=0;entryX=0.75;entryY=1;entryDx=0;entryDy=0;curved=1;dashed=1;sketch=1;curveFitting=1;jiggle=2;" edge="1" parent="1" source="4HEI8u6SiJJmMDaHa_lF-3" target="4HEI8u6SiJJmMDaHa_lF-2">
          <mxGeometry relative="1" as="geometry" />
        </mxCell>
        <mxCell id="4HEI8u6SiJJmMDaHa_lF-15" value="&lt;font style=&quot;font-size: 15px;&quot;&gt;continue&lt;/font&gt;" style="edgeLabel;html=1;align=center;verticalAlign=middle;resizable=0;points=[];fontFamily=Comic Sans MS;" vertex="1" connectable="0" parent="4HEI8u6SiJJmMDaHa_lF-10">
          <mxGeometry x="0.025" y="2" relative="1" as="geometry">
            <mxPoint as="offset" />
          </mxGeometry>
        </mxCell>
        <mxCell id="4HEI8u6SiJJmMDaHa_lF-17" style="edgeStyle=orthogonalEdgeStyle;rounded=0;orthogonalLoop=1;jettySize=auto;html=1;entryX=1;entryY=0.5;entryDx=0;entryDy=0;dashed=1;sketch=1;curveFitting=1;jiggle=2;curved=1;" edge="1" parent="1" source="4HEI8u6SiJJmMDaHa_lF-3" target="4HEI8u6SiJJmMDaHa_lF-5">
          <mxGeometry relative="1" as="geometry" />
        </mxCell>
        <mxCell id="4HEI8u6SiJJmMDaHa_lF-3" value="Chat generator" style="rounded=1;whiteSpace=wrap;html=1;fontFamily=Comic Sans MS;fontSize=15;sketch=1;curveFitting=1;jiggle=2;fillColor=#dae8fc;strokeColor=#6c8ebf;" vertex="1" parent="1">
          <mxGeometry x="400" y="430" width="120" height="60" as="geometry" />
        </mxCell>
        <mxCell id="4HEI8u6SiJJmMDaHa_lF-8" style="edgeStyle=orthogonalEdgeStyle;rounded=0;orthogonalLoop=1;jettySize=auto;html=1;exitX=0.75;exitY=0;exitDx=0;exitDy=0;entryX=0.25;entryY=1;entryDx=0;entryDy=0;curved=1;sketch=1;curveFitting=1;jiggle=2;dashed=1;" edge="1" parent="1" source="4HEI8u6SiJJmMDaHa_lF-5" target="4HEI8u6SiJJmMDaHa_lF-2">
          <mxGeometry relative="1" as="geometry" />
        </mxCell>
        <mxCell id="4HEI8u6SiJJmMDaHa_lF-18" style="edgeStyle=orthogonalEdgeStyle;rounded=0;orthogonalLoop=1;jettySize=auto;html=1;exitX=0.75;exitY=1;exitDx=0;exitDy=0;entryX=0.25;entryY=1;entryDx=0;entryDy=0;dashed=1;sketch=1;curveFitting=1;jiggle=2;curved=1;" edge="1" parent="1" source="4HEI8u6SiJJmMDaHa_lF-5" target="4HEI8u6SiJJmMDaHa_lF-3">
          <mxGeometry relative="1" as="geometry" />
        </mxCell>
        <mxCell id="4HEI8u6SiJJmMDaHa_lF-5" value="Call Tools" style="rounded=1;whiteSpace=wrap;html=1;fontFamily=Comic Sans MS;fontSize=15;sketch=1;curveFitting=1;jiggle=2;fillColor=#f8cecc;strokeColor=#b85450;" vertex="1" parent="1">
          <mxGeometry x="80" y="430" width="120" height="60" as="geometry" />
        </mxCell>
      </root>
    </mxGraphModel>
  </diagram>
</mxfile>
